<svg xmlns="http://www.w3.org/2000/svg" style="display: none;">
<symbol id="find-and-replace-icon-case" viewBox="0 0 20 16" stroke="none" fill-rule="evenodd"> <path d="M10.919,13 L9.463,13 C9.29966585,13 9.16550052,12.9591671 9.0605,12.8775 C8.95549947,12.7958329 8.8796669,12.6943339 8.833,12.573 L8.077,10.508 L3.884,10.508 L3.128,12.573 C3.09066648,12.6803339 3.01716722,12.7783329 2.9075,12.867 C2.79783279,12.9556671 2.66366746,13 2.505,13 L1.042,13 L5.018,2.878 L6.943,2.878 L10.919,13 Z M4.367,9.178 L7.594,9.178 L6.362,5.811 C6.30599972,5.66166592 6.24416701,5.48550102 6.1765,5.2825 C6.108833,5.07949898 6.04233366,4.85900119 5.977,4.621 C5.91166634,4.85900119 5.84750032,5.08066564 5.7845,5.286 C5.72149969,5.49133436 5.65966697,5.67099923 5.599,5.825 L4.367,9.178 Z M18.892,13 L18.115,13"></path> </symbol>
<use xmlns:xlink="http://www.w3.org/1999/xlink" xlink:href="#find-and-replace-icon-case"></use>
<use xmlns:xlink="http://www.w3.org/1999/xlink" xlink:href="#find-and-replace-icon-case" x="260" y="-105"></use>
</svg>