<svg xmlns="http://www.w3.org/2000/svg" viewBox="0 0 38.84 25.72"><title>Aa-white</title><path d="M155.94,179.29q-0.71-1.84-1.31-3.53t-1.15-3.31H141.29q-0.62,1.62-1.22,3.31t-1.27,3.53h-2.56q1.42-3.9,2.69-7.26t2.48-6.37q1.22-3,2.41-5.77t2.52-5.55h2.16q1.32,2.77,2.5,5.54t2.4,5.77q1.22,3,2.47,6.37t2.76,7.26h-2.7Zm-8.58-22.14q-1.35,3.11-2.64,6.31t-2.66,6.9H152.7q-1.38-3.71-2.69-6.91T147.35,157.15Z" transform="translate(-136.24 -154.34)" fill="#f5f5f5"/><path d="M168.39,160.62a8.25,8.25,0,0,1,3.11.52,5.35,5.35,0,0,1,2.07,1.44,5.69,5.69,0,0,1,1.15,2.18,9.93,9.93,0,0,1,.36,2.74v11.74a10.23,10.23,0,0,1-1,.23l-1.58.27q-0.9.14-2,.23t-2.25.09a10.76,10.76,0,0,1-2.72-.32,6,6,0,0,1-2.16-1,4.83,4.83,0,0,1-1.44-1.8,6.21,6.21,0,0,1-.52-2.68,5.44,5.44,0,0,1,.58-2.59,4.89,4.89,0,0,1,1.62-1.78,7.26,7.26,0,0,1,2.48-1,14.27,14.27,0,0,1,3.13-.32q0.5,0,1.06.05t1.08,0.14l0.9,0.18a2.8,2.8,0,0,1,.52.16v-1.15a12.22,12.22,0,0,0-.14-1.89,4.15,4.15,0,0,0-.63-1.66,3.51,3.51,0,0,0-1.37-1.19,5.13,5.13,0,0,0-2.32-.45,12,12,0,0,0-3.06.29q-1,.29-1.48.47l-0.32-2.05a8.72,8.72,0,0,1,1.89-.54A16.24,16.24,0,0,1,168.39,160.62ZM168.61,178q1.37,0,2.39-.09a16.37,16.37,0,0,0,1.75-.23V171.1a7.16,7.16,0,0,0-1.26-.38,11.17,11.17,0,0,0-2.38-.2,13.5,13.5,0,0,0-1.8.13,5.2,5.2,0,0,0-1.73.54,3.59,3.59,0,0,0-1.3,1.13,3.26,3.26,0,0,0-.5,1.91,4.08,4.08,0,0,0,.34,1.76,2.85,2.85,0,0,0,1,1.15,4.3,4.3,0,0,0,1.51.63A9.17,9.17,0,0,0,168.61,178Z" transform="translate(-136.24 -154.34)" fill="#f5f5f5"/></svg>
