<svg xmlns="http://www.w3.org/2000/svg" viewBox="0 0 38.85 32.61"><title>AAA</title><path d="M222.42,246.51q-0.71-1.84-1.31-3.53T220,239.67H207.78q-0.62,1.62-1.22,3.31t-1.27,3.53h-2.56q1.42-3.9,2.69-7.26t2.48-6.37q1.22-3,2.41-5.77t2.52-5.55H215q1.32,2.77,2.5,5.54t2.4,5.77q1.22,3,2.47,6.37t2.76,7.26h-2.7Zm-8.58-22.14q-1.35,3.11-2.64,6.31t-2.66,6.9h10.65q-1.38-3.71-2.69-6.91T213.84,224.37Z" transform="translate(-202.73 -213.9)" fill="#212121"/><path d="M238.88,238.84q-0.71-1.84-1.31-3.53T236.42,232H224.24q-0.62,1.62-1.22,3.31t-1.27,3.53h-2.56q1.42-3.9,2.69-7.26t2.48-6.37q1.22-3,2.41-5.77t2.52-5.55h2.16q1.32,2.77,2.5,5.54t2.4,5.77q1.22,3,2.47,6.37t2.76,7.26h-2.7ZM230.3,216.7q-1.35,3.11-2.64,6.31t-2.66,6.9h10.65q-1.38-3.71-2.69-6.91T230.3,216.7Z" transform="translate(-202.73 -213.9)" fill="#212121"/></svg>
