<svg xmlns="http://www.w3.org/2000/svg" viewBox="0 0 36.21 25.62"><title>regexp</title><path d="M76.1,240.21a2.54,2.54,0,0,1-.66,1.77,2.68,2.68,0,0,1-3.67,0,2.7,2.7,0,0,1,0-3.53,2.68,2.68,0,0,1,3.67,0A2.54,2.54,0,0,1,76.1,240.21Z" transform="translate(-71.12 -217.09)" fill="#212121"/><path d="M93.93,217.59h3L96,228.45l0.11,0.07,8.9-6.27,1.56,2.67-9.9,4.6v0.15l9.9,4.6-1.56,2.67-8.9-6.27-0.11.07L97,241.61h-3l0.93-10.87-0.11-.07-8.9,6.27-1.56-2.67,9.9-4.6v-0.15l-9.9-4.6,1.56-2.67,8.9,6.27,0.11-.07Z" transform="translate(-71.12 -217.09)" fill="#212121" stroke="#212121" stroke-miterlimit="10"/></svg>
