<svg xmlns="http://www.w3.org/2000/svg" viewBox="0 0 36.21 25.62"><title>regexp-white</title><path d="M76.41,178a2.54,2.54,0,0,1-.66,1.77,2.68,2.68,0,0,1-3.67,0,2.7,2.7,0,0,1,0-3.53,2.68,2.68,0,0,1,3.67,0A2.54,2.54,0,0,1,76.41,178Z" transform="translate(-71.42 -154.92)" fill="#f5f5f5"/><path d="M94.24,155.42h3l-0.93,10.86,0.11,0.07,8.9-6.27,1.56,2.67-9.9,4.6v0.15l9.9,4.6-1.56,2.67-8.9-6.27-0.11.07,0.93,10.87h-3l0.93-10.87-0.11-.07-8.9,6.27L84.6,172.1l9.9-4.6v-0.15l-9.9-4.6,1.56-2.67,8.9,6.27,0.11-.07Z" transform="translate(-71.42 -154.92)" fill="#f5f5f5" stroke="#f5f5f5" stroke-miterlimit="10"/></svg>
